<?xml version="1.0" standalone="no"?>
<!DOCTYPE svg PUBLIC "-//W3C//DTD SVG 20010904//EN"
 "http://www.w3.org/TR/2001/REC-SVG-20010904/DTD/svg10.dtd">
<svg version="1.0" xmlns="http://www.w3.org/2000/svg"
 width="512.000000pt" height="512.000000pt" viewBox="0 0 512.000000 512.000000"
 preserveAspectRatio="xMidYMid meet">

<g transform="translate(0.000000,512.000000) scale(0.100000,-0.100000)"
fill="#000000" stroke="none">
<path style="fill:#f26522;" d="M2370 5113 c-371 -35 -653 -114 -961 -269 -406 -203 -782 -548 -1029
-944 -179 -286 -309 -655 -362 -1025 -17 -118 -17 -512 0 -630 42 -295 120
-553 242 -800 137 -280 272 -468 494 -691 221 -220 412 -357 681 -489 188 -92
309 -137 500 -185 500 -126 1002 -102 1490 71 149 53 407 182 540 271 299 199
573 480 769 788 72 113 188 353 235 486 235 662 194 1372 -115 1993 -124 250
-263 447 -458 648 -216 224 -428 378 -711 518 -296 146 -572 225 -900 255
-102 9 -333 11 -415 3z m-207 -1282 c14 -6 48 -38 76 -73 53 -65 64 -105 41
-148 -6 -11 -79 -80 -163 -153 -83 -74 -175 -159 -204 -188 -74 -77 -181 -225
-228 -314 l-40 -76 23 -19 c12 -10 51 -28 86 -40 236 -78 455 -246 544 -417
64 -124 86 -214 85 -363 0 -149 -17 -231 -73 -345 -92 -188 -268 -329 -485
-386 -109 -29 -303 -32 -390 -6 -244 74 -488 338 -567 613 -30 107 -31 314 0
454 104 480 460 933 1078 1371 142 101 164 110 217 90z m1769 -9 c35 -22 118
-129 118 -152 0 -50 -26 -83 -153 -192 -168 -144 -261 -238 -341 -345 -74 -99
-152 -242 -144 -264 3 -9 41 -28 85 -43 192 -68 374 -185 475 -303 112 -132
159 -257 166 -444 6 -163 -13 -260 -74 -388 -80 -164 -242 -304 -424 -365
-148 -49 -326 -57 -452 -20 -194 58 -394 240 -502 457 -60 120 -77 187 -83
328 -12 269 84 573 266 842 182 270 479 557 845 816 133 94 168 106 218 73z"/>
</g>
</svg>
