<svg id="Capa_1" enable-background="new 0 0 512 512" height="512" viewBox="0 0 512 512" width="512" xmlns="http://www.w3.org/2000/svg"><path style="fill:#6ef39e;" d="m256 0c-141.58 0-256 114.39-256 256 0 141.58 114.39 256 256 256 141.58 0 256-114.39 256-256 0-141.58-114.39-256-256-256zm-45 256c0 5.65-.8 11.12-2.27 16.31l79.68 46.48c10.88-10.98 25.95-17.79 42.59-17.79 33.08 0 60 26.92 60 60s-26.92 60-60 60-60-26.92-60-60c0-5.65.8-11.12 2.27-16.31l-79.68-46.48c-10.88 10.98-25.95 17.79-42.59 17.79-33.08 0-60-26.92-60-60s26.92-60 60-60c16.64 0 31.71 6.81 42.59 17.79l79.68-46.48c-1.47-5.19-2.27-10.66-2.27-16.31 0-33.08 26.92-60 60-60s60 26.92 60 60-26.92 60-60 60c-16.64 0-31.71-6.81-42.59-17.79l-79.68 46.48c1.47 5.19 2.27 10.66 2.27 16.31z"/></svg>