<svg xmlns="http://www.w3.org/2000/svg" viewBox="0 0 480.036 480.036"><path d="M 270.52539 0 C 264.98259 0.011735504 259.35316 2.220625 255.00781 7.1328125 C 215.62381 51.635813 195.55197 102.93891 192.16797 155.25391 C 191.82797 160.63391 187.36781 161.81297 186.00781 162.04297 C 184.65781 162.27197 180.08758 162.66267 178.01758 157.76367 C 171.75058 142.93367 153.08627 140.97589 143.69727 152.46289 C 70.213266 242.31589 81.773422 369.78575 157.35742 435.34375 C 226.04342 494.92675 336.95325 494.94075 405.65625 435.34375 C 481.24825 369.78075 492.78119 242.33267 419.36719 152.51367 C 409.73819 140.75467 391.08927 143.44689 385.19727 157.46289 C 382.96727 162.74289 379.89641 167.4835 376.06641 171.5625 C 373.69441 174.0785 369.47841 172.83383 369.06641 169.42383 C 365.42641 138.94483 355.35648 113.65367 339.14648 94.263672 C 324.16148 76.349672 309.67827 71.847734 299.94727 53.302734 C 294.88727 43.672734 292.13781 32.613125 291.75781 20.453125 C 291.36997 7.9653438 281.10711 -0.022404144 270.52539 0 z M 129.86914 12.791016 C 121.24321 12.963112 112.61717 17.050047 107.17773 25.373047 C 89.167734 52.963047 79.416562 84.713906 78.976562 117.25391 C 66.916562 103.71791 45.07525 104.72452 35.15625 120.35352 C -5.65475 184.74852 6.4893906 271.51758 66.150391 313.26758 C 71.713391 317.16158 79.248672 312.898 78.763672 306.125 C 74.462672 246.093 94.160641 187.75203 131.30664 142.33203 C 141.00464 130.46903 156.20977 126.55692 169.63477 130.54492 C 174.24677 131.91392 179.02167 129.06989 179.88867 124.33789 C 182.74467 108.74689 187.01995 93.637531 192.37695 79.519531 C 193.27795 77.144531 192.95922 74.476703 191.57422 72.345703 C 177.36022 50.480703 163.53019 50.798516 156.36719 30.853516 C 152.04944 18.819953 140.95963 12.569749 129.86914 12.791016 z M 247.43945 228.4082 C 260.53894 228.3269 273.31242 238.84453 271.68164 254.74219 C 270.19764 269.20219 272.86177 280.60756 279.38477 287.72656 C 280.76477 289.23356 288.14542 296.70031 297.60742 296.44531 C 304.60342 296.23631 311.95248 291.73947 317.77148 284.10547 C 328.77548 269.67647 351.36503 272.53395 358.70703 289.25195 C 372.71003 321.12895 366.21397 358.83131 342.54297 383.07031 C 306.77997 419.68731 246.46423 410.87716 217.99023 378.91016 C 195.93223 354.14516 199.08659 321.33041 200.43359 307.31641 C 202.78459 282.86041 212.26337 259.54277 228.60938 238.00977 C 233.62572 231.40186 240.57782 228.45079 247.43945 228.4082 z M 248.29688 244.44141 C 245.80688 244.282 243.20197 245.25097 241.35547 247.68359 C 226.83347 266.81459 218.42333 287.39266 216.36133 308.84766 C 215.11733 321.78966 212.53045 348.72158 229.93945 368.26758 C 241.97845 381.78458 262.15847 390.47336 282.60547 390.94336 C 334.75147 392.09036 363.36955 339.6455 344.06055 295.6875 C 341.61755 290.1255 334.10405 289.07859 330.49805 293.80859 C 321.61005 305.46459 310.09994 312.08145 298.08594 312.43945 C 282.06594 312.93845 270.68589 301.91716 267.58789 298.53516 C 257.89089 287.95216 253.80258 272.24437 255.76758 253.10938 C 256.28008 248.11 252.44687 244.70709 248.29688 244.44141 z"></path></svg>